<svg width="24" height="30" viewBox="0 0 24 30" fill="none" xmlns="http://www.w3.org/2000/svg">
<path d="M12 30C11.2042 29.9961 10.4418 29.6792 9.87767 29.1179C9.31352 28.5566 8.99287 27.7958 8.985 27H14.985C14.9882 27.401 14.9117 27.7987 14.76 28.17C14.566 28.6151 14.269 29.0077 13.8935 29.3155C13.5179 29.6232 13.0746 29.8373 12.6 29.94H12.5295C12.3552 29.9763 12.178 29.9964 12 30ZM24 25.5H0V22.5L3 21V12.75C2.92098 10.6337 3.3989 8.53369 4.386 6.66C4.87176 5.8009 5.53415 5.05456 6.32948 4.47022C7.1248 3.88588 8.03499 3.47681 9 3.27V0H15V3.27C18.8685 4.191 21 7.557 21 12.75V21L24 22.5V25.5Z" fill="white"/>
</svg>
