<svg width="28" height="30" viewBox="0 0 28 30" fill="none" xmlns="http://www.w3.org/2000/svg">
<path d="M14.0054 10.9155C13.0175 10.9155 12.0924 11.3044 11.3919 12.0153C10.6948 12.7261 10.3082 13.6649 10.3082 14.6674C10.3082 15.67 10.6948 16.6088 11.3919 17.3196C12.0924 18.0271 13.0175 18.4194 14.0054 18.4194C14.9933 18.4194 15.9184 18.0271 16.6188 17.3196C17.316 16.6088 17.7026 15.67 17.7026 14.6674C17.7026 13.6649 17.316 12.7261 16.6188 12.0153C16.2767 11.6654 15.8695 11.388 15.4209 11.1992C14.9722 11.0104 14.4911 10.914 14.0054 10.9155ZM27.6278 18.8117L25.467 16.9374C25.5694 16.3003 25.6222 15.6498 25.6222 15.0027C25.6222 14.3556 25.5694 13.7018 25.467 13.0681L27.6278 11.1938C27.791 11.052 27.9078 10.8631 27.9627 10.6523C28.0176 10.4415 28.008 10.2187 27.935 10.0135L27.9053 9.92637C27.3106 8.23881 26.4196 6.67454 25.2753 5.30938L25.2159 5.23896C25.0769 5.07317 24.8917 4.95399 24.6847 4.89712C24.4777 4.84026 24.2585 4.84839 24.0562 4.92044L21.3733 5.88943C20.3821 5.06461 19.2786 4.41414 18.0825 3.9615L17.5638 1.11485C17.5246 0.900405 17.4221 0.703119 17.2699 0.549204C17.1176 0.395288 16.9228 0.29203 16.7114 0.253147L16.6221 0.236382C14.9041 -0.078794 13.0935 -0.078794 11.3754 0.236382L11.2862 0.253147C11.0747 0.29203 10.8799 0.395288 10.7276 0.549204C10.5754 0.703119 10.4729 0.900405 10.4337 1.11485L9.91171 3.97491C8.72699 4.43116 7.62334 5.08005 6.64406 5.89614L3.94138 4.92044C3.73906 4.84782 3.51976 4.8394 3.31261 4.89629C3.10547 4.95319 2.92029 5.07271 2.78168 5.23896L2.7222 5.30938C1.57999 6.676 0.689157 8.23987 0.0922183 9.92637L0.0624823 10.0135C-0.0861979 10.4327 0.0360503 10.9021 0.369755 11.1938L2.557 13.0882C2.45458 13.7185 2.40502 14.3623 2.40502 14.9994C2.40502 15.6431 2.45458 16.2869 2.557 16.9105L0.376363 18.8049C0.213131 18.9468 0.0963035 19.1356 0.0414158 19.3465C-0.0134718 19.5573 -0.0038193 19.7801 0.0690902 19.9852L0.0988263 20.0724C0.696851 21.7589 1.57902 23.318 2.72881 24.6894L2.78828 24.7598C2.92723 24.9256 3.11242 25.0447 3.31944 25.1016C3.52647 25.1585 3.74561 25.1503 3.94799 25.0783L6.65066 24.1026C7.63526 24.9241 8.73219 25.5745 9.91832 26.0238L10.4404 28.8839C10.4795 29.0983 10.582 29.2956 10.7343 29.4495C10.8865 29.6034 11.0813 29.7067 11.2928 29.7456L11.382 29.7623C13.117 30.0792 14.8938 30.0792 16.6288 29.7623L16.718 29.7456C16.9294 29.7067 17.1242 29.6034 17.2765 29.4495C17.4287 29.2956 17.5313 29.0983 17.5704 28.8839L18.0891 26.0372C19.2852 25.5812 20.3887 24.9341 21.3799 24.1093L24.0628 25.0783C24.2651 25.1509 24.4844 25.1593 24.6915 25.1024C24.8987 25.0455 25.0839 24.926 25.2225 24.7598L25.2819 24.6894C26.4317 23.3113 27.3139 21.7589 27.9119 20.0724L27.9417 19.9852C28.0837 19.5694 27.9615 19.1034 27.6278 18.8117ZM14.0054 20.5619C10.7972 20.5619 8.19694 17.9231 8.19694 14.6674C8.19694 11.4117 10.7972 8.77296 14.0054 8.77296C17.2136 8.77296 19.8138 11.4117 19.8138 14.6674C19.8138 17.9231 17.2136 20.5619 14.0054 20.5619Z" fill="white"/>
</svg>
